<?xml version="1.0" encoding="UTF-8" standalone="no"?>
<!-- Created with Inkscape (http://www.inkscape.org/) -->

<svg
   width="500mm"
   height="500mm"
   viewBox="0 0 500 500"
   version="1.1"
   id="svg1"
   inkscape:export-filename="icon.png"
   inkscape:export-xdpi="25.949083"
   inkscape:export-ydpi="25.949083"
   xml:space="preserve"
   sodipodi:docname="icon.svg"
   xmlns:inkscape="http://www.inkscape.org/namespaces/inkscape"
   xmlns:sodipodi="http://sodipodi.sourceforge.net/DTD/sodipodi-0.dtd"
   xmlns="http://www.w3.org/2000/svg"
   xmlns:svg="http://www.w3.org/2000/svg"><sodipodi:namedview
     id="namedview1"
     pagecolor="#505050"
     bordercolor="#eeeeee"
     borderopacity="1"
     inkscape:showpageshadow="0"
     inkscape:pageopacity="0"
     inkscape:pagecheckerboard="0"
     inkscape:deskcolor="#505050"
     inkscape:document-units="mm"
     inkscape:zoom="0.35355339"
     inkscape:cx="1108.7434"
     inkscape:cy="982.87842"
     inkscape:window-width="1920"
     inkscape:window-height="991"
     inkscape:window-x="2391"
     inkscape:window-y="-9"
     inkscape:window-maximized="1"
     inkscape:current-layer="layer1" /><defs
     id="defs1" /><g
     inkscape:label="Ebene 1"
     inkscape:groupmode="layer"
     id="layer1"><rect
       style="fill:#0c3a27;fill-opacity:1;stroke-width:0.296943"
       id="rect2"
       width="511.93329"
       height="518.45886"
       x="-6.8807411"
       y="-6.3773761" /><rect
       style="fill:#ffffff;fill-opacity:0;stroke-width:0.264583"
       id="rect1"
       width="296.34845"
       height="240.9702"
       x="99.531174"
       y="95.789398" /><path
       id="rect3"
       style="fill:#ffffff;fill-opacity:1;stroke-width:0.226136"
       d="m 176.49414,136.07231 c -0.2073,0 -0.37414,0.16685 -0.37414,0.37414 v 11.72797 h -42.24755 c -22.34167,0 -40.328289,17.9861 -40.328289,40.32777 v 137.11514 c 0,22.34168 17.986619,40.32829 40.328289,40.32829 h 238.89136 c 22.34167,0 40.32777,-17.98661 40.32777,-40.32829 V 188.50219 c 0,-22.34167 -17.9861,-40.32777 -40.32777,-40.32777 h -48.46939 v -11.72797 c 0,-0.20729 -0.16685,-0.37414 -0.37414,-0.37414 z m 22.07565,70.83186 3.30729,33.46979 H 209.55 l -3.175,-33.46979 25.26771,0.13229 8.59896,91.81041 h -26.19375 l -3.04271,-33.60208 -32.94063,0.13229 -6.35,-58.20833 z m 132.95313,0 54.37187,0.13229 1.05833,8.06979 6.74688,0.13229 3.83646,41.14271 -6.61459,-0.13229 -1.05833,-0.13229 1.32292,8.86354 -29.63334,0.26458 0.92605,8.99583 36.11562,0.26459 2.51354,24.20937 -61.78021,0.26459 -4.6302,-49.60938 h 7.27604 l -0.92604,-9.26042 28.31041,0.39688 -0.39687,-9.39271 -35.18959,0.13229 z m -165.48189,0.016 8.04498,91.86054 -59.4005,-0.0935 -7.76439,-91.67347 z m 131.99142,0 25.25686,0.0935 8.3659,91.70086 h -25.92917 l -4.49792,-57.15 -9.65729,0.39688 -2.2381,-23.90965 4.5837,0.0935 -0.37414,-5.51904 4.8643,-0.0935 z m -29.18581,8.60619 2.43189,20.01842 -20.39255,3.92844 -2.61948,-20.20549 z m -126.94006,15.80885 -6.92205,0.0935 3.74189,42.93691 7.01559,0.0935 z m 132.55264,34.51779 2.80603,19.64428 -21.14083,3.92896 -2.24534,-19.45721 z" /></g></svg>
